<?xml version="1.0" encoding="UTF-8" standalone="no"?>
<!DOCTYPE svg PUBLIC "-//W3C//DTD SVG 1.1//EN"
 "http://www.w3.org/Graphics/SVG/1.1/DTD/svg11.dtd">
<!-- Generated by graphviz version 2.40.1 (20161225.0304)
 -->
<!-- Title: SchemaCrawler_Diagram Pages: 1 -->
<svg width="963pt" height="364pt"
 viewBox="0.00 0.00 963.00 364.00" xmlns="http://www.w3.org/2000/svg" xmlns:xlink="http://www.w3.org/1999/xlink">
<g id="graph0" class="graph" transform="scale(1 1) rotate(0) translate(4 360)">
<title>SchemaCrawler_Diagram</title>
<polygon fill="#ffffff" stroke="transparent" points="-4,4 -4,-360 959,-360 959,4 -4,4"/>
<text text-anchor="start" x="701.7695" y="-27.8" font-family="Helvetica,sans-Serif" font-size="14.00" fill="#000000">generated by</text>
<text text-anchor="start" x="787.0142" y="-27.8" font-family="Helvetica,sans-Serif" font-size="14.00" fill="#000000">SchemaCrawler 15.06.01</text>
<text text-anchor="start" x="701.2417" y="-9.8" font-family="Helvetica,sans-Serif" font-size="14.00" fill="#000000">generated on</text>
<text text-anchor="start" x="787.5" y="-9.8" font-family="Helvetica,sans-Serif" font-size="14.00" fill="#000000">2019&#45;07&#45;15 10:37:32</text>
<polygon fill="none" stroke="#888888" points="698,-4 698,-42 947,-42 947,-4 698,-4"/>
<!-- api_1ee79 -->
<g id="node1" class="node">
<title>api_1ee79</title>
<polygon fill="#f2e9ce" stroke="transparent" points="502.5,-333 502.5,-351 591.5,-351 591.5,-333 502.5,-333"/>
<text text-anchor="start" x="504.5" y="-338.8" font-family="Helvetica,sans-Serif" font-weight="bold" font-style="italic" font-size="14.00" fill="#000000">api</text>
<polygon fill="#f2e9ce" stroke="transparent" points="591.5,-333 591.5,-351 703.5,-351 703.5,-333 591.5,-333"/>
<text text-anchor="start" x="663.3623" y="-337.8" font-family="Helvetica,sans-Serif" font-size="14.00" fill="#000000">[table]</text>
<text text-anchor="start" x="504.1934" y="-320.8" font-family="Helvetica,sans-Serif" font-weight="bold" font-style="italic" font-size="14.00" fill="#000000">group_name</text>
<text text-anchor="start" x="586.0552" y="-319.8" font-family="Helvetica,sans-Serif" font-size="14.00" fill="#000000"> </text>
<text text-anchor="start" x="593.5" y="-319.8" font-family="Helvetica,sans-Serif" font-size="14.00" fill="#000000">TEXT</text>
<text text-anchor="start" x="504.5" y="-302.8" font-family="Helvetica,sans-Serif" font-weight="bold" font-style="italic" font-size="14.00" fill="#000000">version</text>
<text text-anchor="start" x="586.0552" y="-301.8" font-family="Helvetica,sans-Serif" font-size="14.00" fill="#000000"> </text>
<text text-anchor="start" x="593.5" y="-301.8" font-family="Helvetica,sans-Serif" font-size="14.00" fill="#000000">TEXT</text>
<text text-anchor="start" x="504.5" y="-284.8" font-family="Helvetica,sans-Serif" font-weight="bold" font-style="italic" font-size="14.00" fill="#000000">kind</text>
<text text-anchor="start" x="586.0552" y="-283.8" font-family="Helvetica,sans-Serif" font-size="14.00" fill="#000000"> </text>
<text text-anchor="start" x="593.5" y="-283.8" font-family="Helvetica,sans-Serif" font-size="14.00" fill="#000000">TEXT</text>
<text text-anchor="start" x="504.5" y="-265.8" font-family="Helvetica,sans-Serif" font-size="14.00" fill="#000000">plural</text>
<text text-anchor="start" x="586.0552" y="-265.8" font-family="Helvetica,sans-Serif" font-size="14.00" fill="#000000"> </text>
<text text-anchor="start" x="593.2944" y="-265.8" font-family="Helvetica,sans-Serif" font-size="14.00" fill="#000000">TEXT NOT NULL</text>
<polygon fill="none" stroke="#888888" points="501,-260 501,-352 704,-352 704,-260 501,-260"/>
</g>
<!-- api_provider_b06eed5 -->
<g id="node2" class="node">
<title>api_provider_b06eed5</title>
<polygon fill="#f2e9ce" stroke="transparent" points="763.5,-333 763.5,-351 880.5,-351 880.5,-333 763.5,-333"/>
<text text-anchor="start" x="765.5" y="-338.8" font-family="Helvetica,sans-Serif" font-weight="bold" font-style="italic" font-size="14.00" fill="#000000">api_provider</text>
<polygon fill="#f2e9ce" stroke="transparent" points="880.5,-333 880.5,-351 946.5,-351 946.5,-333 880.5,-333"/>
<text text-anchor="start" x="906.3623" y="-337.8" font-family="Helvetica,sans-Serif" font-size="14.00" fill="#000000">[table]</text>
<text text-anchor="start" x="765.5" y="-319.8" font-family="Helvetica,sans-Serif" font-size="14.00" fill="#000000">group_name</text>
<text text-anchor="start" x="875.0552" y="-319.8" font-family="Helvetica,sans-Serif" font-size="14.00" fill="#000000"> </text>
<text text-anchor="start" x="882.5" y="-319.8" font-family="Helvetica,sans-Serif" font-size="14.00" fill="#000000">TEXT</text>
<text text-anchor="start" x="765.5" y="-301.8" font-family="Helvetica,sans-Serif" font-size="14.00" fill="#000000">version</text>
<text text-anchor="start" x="875.0552" y="-301.8" font-family="Helvetica,sans-Serif" font-size="14.00" fill="#000000"> </text>
<text text-anchor="start" x="882.5" y="-301.8" font-family="Helvetica,sans-Serif" font-size="14.00" fill="#000000">TEXT</text>
<text text-anchor="start" x="765.5" y="-283.8" font-family="Helvetica,sans-Serif" font-size="14.00" fill="#000000">kind</text>
<text text-anchor="start" x="875.0552" y="-283.8" font-family="Helvetica,sans-Serif" font-size="14.00" fill="#000000"> </text>
<text text-anchor="start" x="882.5" y="-283.8" font-family="Helvetica,sans-Serif" font-size="14.00" fill="#000000">TEXT</text>
<text text-anchor="start" x="765.1831" y="-265.8" font-family="Helvetica,sans-Serif" font-size="14.00" fill="#000000">channel_entry_id</text>
<text text-anchor="start" x="875.0552" y="-265.8" font-family="Helvetica,sans-Serif" font-size="14.00" fill="#000000"> </text>
<text text-anchor="start" x="882.3862" y="-265.8" font-family="Helvetica,sans-Serif" font-size="14.00" fill="#000000">INTEGER</text>
<polygon fill="none" stroke="#888888" points="762,-260 762,-352 947,-352 947,-260 762,-260"/>
</g>
<!-- api_provider_b06eed5&#45;&gt;api_1ee79 -->
<g id="edge1" class="edge">
<title>api_provider_b06eed5:w&#45;&gt;api_1ee79:e</title>
<path fill="none" stroke="#000000" d="M745.2933,-324C734.3486,-324 726.5017,-324 713.7586,-324"/>
<polygon fill="#000000" stroke="#000000" points="753.5,-324.0001 763.5,-328.5 758.5,-324 763.5,-324 763.5,-324 763.5,-324 758.5,-324 763.5,-319.5 753.5,-324.0001 753.5,-324.0001"/>
<ellipse fill="none" stroke="#000000" cx="749.5" cy="-324.0001" rx="4" ry="4"/>
<polygon fill="#000000" stroke="#000000" points="704.5,-329 704.5,-319 706.5,-319 706.5,-329 704.5,-329"/>
<polyline fill="none" stroke="#000000" points="703.5,-324 708.5,-324 "/>
<polygon fill="#000000" stroke="#000000" points="709.5,-329.0001 709.5,-319.0001 711.5,-319.0001 711.5,-329.0001 709.5,-329.0001"/>
<polyline fill="none" stroke="#000000" points="708.5,-324 713.5,-324.0001 "/>
</g>
<!-- api_provider_b06eed5&#45;&gt;api_1ee79 -->
<g id="edge2" class="edge">
<title>api_provider_b06eed5:w&#45;&gt;api_1ee79:e</title>
<path fill="none" stroke="#000000" d="M745.2933,-306C734.3486,-306 726.5017,-306 713.7586,-306"/>
<polygon fill="#000000" stroke="#000000" points="753.5,-306.0001 763.5,-310.5 758.5,-306 763.5,-306 763.5,-306 763.5,-306 758.5,-306 763.5,-301.5 753.5,-306.0001 753.5,-306.0001"/>
<ellipse fill="none" stroke="#000000" cx="749.5" cy="-306.0001" rx="4" ry="4"/>
<polygon fill="#000000" stroke="#000000" points="704.5,-311 704.5,-301 706.5,-301 706.5,-311 704.5,-311"/>
<polyline fill="none" stroke="#000000" points="703.5,-306 708.5,-306 "/>
<polygon fill="#000000" stroke="#000000" points="709.5,-311.0001 709.5,-301.0001 711.5,-301.0001 711.5,-311.0001 709.5,-311.0001"/>
<polyline fill="none" stroke="#000000" points="708.5,-306 713.5,-306.0001 "/>
</g>
<!-- api_provider_b06eed5&#45;&gt;api_1ee79 -->
<g id="edge3" class="edge">
<title>api_provider_b06eed5:w&#45;&gt;api_1ee79:e</title>
<path fill="none" stroke="#000000" d="M745.2933,-288C734.3486,-288 726.5017,-288 713.7586,-288"/>
<polygon fill="#000000" stroke="#000000" points="753.5,-288.0001 763.5,-292.5 758.5,-288 763.5,-288 763.5,-288 763.5,-288 758.5,-288 763.5,-283.5 753.5,-288.0001 753.5,-288.0001"/>
<ellipse fill="none" stroke="#000000" cx="749.5" cy="-288.0001" rx="4" ry="4"/>
<polygon fill="#000000" stroke="#000000" points="704.5,-293 704.5,-283 706.5,-283 706.5,-293 704.5,-293"/>
<polyline fill="none" stroke="#000000" points="703.5,-288 708.5,-288 "/>
<polygon fill="#000000" stroke="#000000" points="709.5,-293.0001 709.5,-283.0001 711.5,-283.0001 711.5,-293.0001 709.5,-293.0001"/>
<polyline fill="none" stroke="#000000" points="708.5,-288 713.5,-288.0001 "/>
</g>
<!-- channel_entry_694c4e95 -->
<g id="node3" class="node">
<title>channel_entry_694c4e95</title>
<polygon fill="#f2e9ce" stroke="transparent" points="496.5,-197 496.5,-215 643.5,-215 643.5,-197 496.5,-197"/>
<text text-anchor="start" x="498.5" y="-202.8" font-family="Helvetica,sans-Serif" font-weight="bold" font-style="italic" font-size="14.00" fill="#000000">channel_entry</text>
<polygon fill="#f2e9ce" stroke="transparent" points="643.5,-197 643.5,-215 709.5,-215 709.5,-197 643.5,-197"/>
<text text-anchor="start" x="669.3623" y="-201.8" font-family="Helvetica,sans-Serif" font-size="14.00" fill="#000000">[table]</text>
<text text-anchor="start" x="498.5" y="-184.8" font-family="Helvetica,sans-Serif" font-weight="bold" font-style="italic" font-size="14.00" fill="#000000">entry_id</text>
<text text-anchor="start" x="638.0552" y="-183.8" font-family="Helvetica,sans-Serif" font-size="14.00" fill="#000000"> </text>
<text text-anchor="start" x="645.3862" y="-183.8" font-family="Helvetica,sans-Serif" font-size="14.00" fill="#000000">INTEGER</text>
<text text-anchor="start" x="498.5" y="-165.8" font-family="Helvetica,sans-Serif" font-size="14.00" fill="#000000">channel_name</text>
<text text-anchor="start" x="638.0552" y="-165.8" font-family="Helvetica,sans-Serif" font-size="14.00" fill="#000000"> </text>
<text text-anchor="start" x="645.5" y="-165.8" font-family="Helvetica,sans-Serif" font-size="14.00" fill="#000000">TEXT</text>
<text text-anchor="start" x="498.5" y="-147.8" font-family="Helvetica,sans-Serif" font-size="14.00" fill="#000000">package_name</text>
<text text-anchor="start" x="638.0552" y="-147.8" font-family="Helvetica,sans-Serif" font-size="14.00" fill="#000000"> </text>
<text text-anchor="start" x="645.5" y="-147.8" font-family="Helvetica,sans-Serif" font-size="14.00" fill="#000000">TEXT</text>
<text text-anchor="start" x="498.0039" y="-129.8" font-family="Helvetica,sans-Serif" font-size="14.00" fill="#000000">operatorbundle_name</text>
<text text-anchor="start" x="638.0552" y="-129.8" font-family="Helvetica,sans-Serif" font-size="14.00" fill="#000000"> </text>
<text text-anchor="start" x="645.5" y="-129.8" font-family="Helvetica,sans-Serif" font-size="14.00" fill="#000000">TEXT</text>
<text text-anchor="start" x="498.5" y="-111.8" font-family="Helvetica,sans-Serif" font-size="14.00" fill="#000000">replaces</text>
<text text-anchor="start" x="638.0552" y="-111.8" font-family="Helvetica,sans-Serif" font-size="14.00" fill="#000000"> </text>
<text text-anchor="start" x="645.3862" y="-111.8" font-family="Helvetica,sans-Serif" font-size="14.00" fill="#000000">INTEGER</text>
<text text-anchor="start" x="498.5" y="-93.8" font-family="Helvetica,sans-Serif" font-size="14.00" fill="#000000">depth</text>
<text text-anchor="start" x="638.0552" y="-93.8" font-family="Helvetica,sans-Serif" font-size="14.00" fill="#000000"> </text>
<text text-anchor="start" x="645.3862" y="-93.8" font-family="Helvetica,sans-Serif" font-size="14.00" fill="#000000">INTEGER</text>
<polygon fill="none" stroke="#888888" points="495,-88 495,-216 710,-216 710,-88 495,-88"/>
</g>
<!-- api_provider_b06eed5&#45;&gt;channel_entry_694c4e95 -->
<g id="edge4" class="edge">
<title>api_provider_b06eed5:w&#45;&gt;channel_entry_694c4e95:e</title>
<path fill="none" stroke="#000000" d="M746.7822,-263.2896C731.1091,-245.8476 742.3101,-199.7535 719.5391,-189.879"/>
<polygon fill="#000000" stroke="#000000" points="754.2197,-266.2749 761.8237,-274.1761 758.8598,-268.1375 763.5,-270 763.5,-270 763.5,-270 758.8598,-268.1375 765.1763,-265.8239 754.2197,-266.2749 754.2197,-266.2749"/>
<ellipse fill="none" stroke="#000000" cx="750.5076" cy="-264.7849" rx="4" ry="4"/>
<polygon fill="#000000" stroke="#000000" points="709.563,-193.0986 711.4029,-183.2693 713.3687,-183.6373 711.5289,-193.4666 709.563,-193.0986"/>
<polyline fill="none" stroke="#000000" points="709.5,-188 714.4147,-188.9199 "/>
<polygon fill="#000000" stroke="#000000" points="714.4776,-194.0186 716.3175,-184.1893 718.2834,-184.5572 716.4435,-194.3865 714.4776,-194.0186"/>
<polyline fill="none" stroke="#000000" points="714.4147,-188.9199 719.3293,-189.8399 "/>
</g>
<!-- channel_entry_694c4e95&#45;&gt;channel_entry_694c4e95 -->
<g id="edge10" class="edge">
<title>channel_entry_694c4e95:w&#45;&gt;channel_entry_694c4e95:e</title>
<path fill="none" stroke="#000000" d="M480.8254,-125.4071C434.9283,-161.0156 449.0596,-238 603,-238 763.8926,-238 772.0629,-218.7783 718.5963,-192.3086"/>
<polygon fill="#000000" stroke="#000000" points="487.9256,-121.1459 498.8157,-119.8585 492.2128,-118.573 496.5,-116 496.5,-116 496.5,-116 492.2128,-118.573 494.1843,-112.1415 487.9256,-121.1459 487.9256,-121.1459"/>
<ellipse fill="none" stroke="#000000" cx="484.4959" cy="-123.2043" rx="4" ry="4"/>
<polygon fill="#000000" stroke="#000000" points="708.2634,-192.9468 712.5441,-183.9094 714.3516,-184.7655 710.0708,-193.803 708.2634,-192.9468"/>
<polyline fill="none" stroke="#000000" points="709.5,-188 714.0187,-190.1404 "/>
<polygon fill="#000000" stroke="#000000" points="712.7821,-195.0872 717.0629,-186.0497 718.8704,-186.9059 714.5896,-195.9434 712.7821,-195.0872"/>
<polyline fill="none" stroke="#000000" points="714.0187,-190.1404 718.5375,-192.2808 "/>
</g>
<!-- channel_2c0bf162 -->
<g id="node4" class="node">
<title>channel_2c0bf162</title>
<polygon fill="#f2e9ce" stroke="transparent" points="214,-179 214,-197 400,-197 400,-179 214,-179"/>
<text text-anchor="start" x="216" y="-184.8" font-family="Helvetica,sans-Serif" font-weight="bold" font-style="italic" font-size="14.00" fill="#000000">channel</text>
<polygon fill="#f2e9ce" stroke="transparent" points="400,-179 400,-197 442,-197 442,-179 400,-179"/>
<text text-anchor="start" x="401.9312" y="-183.8" font-family="Helvetica,sans-Serif" font-size="14.00" fill="#000000">[table]</text>
<text text-anchor="start" x="216" y="-166.8" font-family="Helvetica,sans-Serif" font-weight="bold" font-style="italic" font-size="14.00" fill="#000000">name</text>
<text text-anchor="start" x="394.5552" y="-165.8" font-family="Helvetica,sans-Serif" font-size="14.00" fill="#000000"> </text>
<text text-anchor="start" x="402" y="-165.8" font-family="Helvetica,sans-Serif" font-size="14.00" fill="#000000">TEXT</text>
<text text-anchor="start" x="216" y="-148.8" font-family="Helvetica,sans-Serif" font-weight="bold" font-style="italic" font-size="14.00" fill="#000000">package_name</text>
<text text-anchor="start" x="394.5552" y="-147.8" font-family="Helvetica,sans-Serif" font-size="14.00" fill="#000000"> </text>
<text text-anchor="start" x="402" y="-147.8" font-family="Helvetica,sans-Serif" font-size="14.00" fill="#000000">TEXT</text>
<text text-anchor="start" x="215.5386" y="-129.8" font-family="Helvetica,sans-Serif" font-size="14.00" fill="#000000">head_operatorbundle_name</text>
<text text-anchor="start" x="394.5552" y="-129.8" font-family="Helvetica,sans-Serif" font-size="14.00" fill="#000000"> </text>
<text text-anchor="start" x="402" y="-129.8" font-family="Helvetica,sans-Serif" font-size="14.00" fill="#000000">TEXT</text>
<polygon fill="none" stroke="#888888" points="213,-124 213,-198 443,-198 443,-124 213,-124"/>
</g>
<!-- channel_entry_694c4e95&#45;&gt;channel_2c0bf162 -->
<g id="edge8" class="edge">
<title>channel_entry_694c4e95:w&#45;&gt;channel_2c0bf162:e</title>
<path fill="none" stroke="#000000" d="M478.3911,-170C469.5044,-170 462.6699,-170 452.2369,-170"/>
<polygon fill="#000000" stroke="#000000" points="486.5,-170.0001 496.5,-174.5 491.5,-170 496.5,-170 496.5,-170 496.5,-170 491.5,-170 496.5,-165.5 486.5,-170.0001 486.5,-170.0001"/>
<ellipse fill="none" stroke="#000000" cx="482.5" cy="-170.0001" rx="4" ry="4"/>
<polygon fill="#000000" stroke="#000000" points="443,-175 443,-165 445,-165 445,-175 443,-175"/>
<polyline fill="none" stroke="#000000" points="442,-170 447,-170 "/>
<polygon fill="#000000" stroke="#000000" points="448,-175.0001 448,-165.0001 450,-165.0001 450,-175.0001 448,-175.0001"/>
<polyline fill="none" stroke="#000000" points="447,-170 452,-170.0001 "/>
</g>
<!-- channel_entry_694c4e95&#45;&gt;channel_2c0bf162 -->
<g id="edge9" class="edge">
<title>channel_entry_694c4e95:w&#45;&gt;channel_2c0bf162:e</title>
<path fill="none" stroke="#000000" d="M478.3911,-152C469.5044,-152 462.6699,-152 452.2369,-152"/>
<polygon fill="#000000" stroke="#000000" points="486.5,-152.0001 496.5,-156.5 491.5,-152 496.5,-152 496.5,-152 496.5,-152 491.5,-152 496.5,-147.5 486.5,-152.0001 486.5,-152.0001"/>
<ellipse fill="none" stroke="#000000" cx="482.5" cy="-152.0001" rx="4" ry="4"/>
<polygon fill="#000000" stroke="#000000" points="443,-157 443,-147 445,-147 445,-157 443,-157"/>
<polyline fill="none" stroke="#000000" points="442,-152 447,-152 "/>
<polygon fill="#000000" stroke="#000000" points="448,-157.0001 448,-147.0001 450,-147.0001 450,-157.0001 448,-157.0001"/>
<polyline fill="none" stroke="#000000" points="447,-152 452,-152.0001 "/>
</g>
<!-- operatorbundle_a549c285 -->
<g id="node6" class="node">
<title>operatorbundle_a549c285</title>
<polygon fill="#f2e9ce" stroke="transparent" points="14.5,-105 14.5,-123 112.5,-123 112.5,-105 14.5,-105"/>
<text text-anchor="start" x="16.4072" y="-110.8" font-family="Helvetica,sans-Serif" font-weight="bold" font-style="italic" font-size="14.00" fill="#000000">operatorbundle</text>
<polygon fill="#f2e9ce" stroke="transparent" points="112.5,-105 112.5,-123 154.5,-123 154.5,-105 112.5,-105"/>
<text text-anchor="start" x="114.4312" y="-109.8" font-family="Helvetica,sans-Serif" font-size="14.00" fill="#000000">[table]</text>
<text text-anchor="start" x="16.5" y="-92.8" font-family="Helvetica,sans-Serif" font-weight="bold" font-style="italic" font-size="14.00" fill="#000000">name</text>
<text text-anchor="start" x="84.5" y="-91.8" font-family="Helvetica,sans-Serif" font-size="14.00" fill="#000000"> </text>
<text text-anchor="start" x="114.5" y="-91.8" font-family="Helvetica,sans-Serif" font-size="14.00" fill="#000000">TEXT</text>
<text text-anchor="start" x="16.5" y="-73.8" font-family="Helvetica,sans-Serif" font-size="14.00" fill="#000000">csv</text>
<text text-anchor="start" x="84.5" y="-73.8" font-family="Helvetica,sans-Serif" font-size="14.00" fill="#000000"> </text>
<text text-anchor="start" x="114.5" y="-73.8" font-family="Helvetica,sans-Serif" font-size="14.00" fill="#000000">TEXT</text>
<text text-anchor="start" x="16.5" y="-55.8" font-family="Helvetica,sans-Serif" font-size="14.00" fill="#000000">bundle</text>
<text text-anchor="start" x="84.5" y="-55.8" font-family="Helvetica,sans-Serif" font-size="14.00" fill="#000000"> </text>
<text text-anchor="start" x="114.5" y="-55.8" font-family="Helvetica,sans-Serif" font-size="14.00" fill="#000000">TEXT</text>
<polygon fill="none" stroke="#888888" points="13.5,-50 13.5,-124 155.5,-124 155.5,-50 13.5,-50"/>
</g>
<!-- channel_entry_694c4e95&#45;&gt;operatorbundle_a549c285 -->
<g id="edge11" class="edge">
<title>channel_entry_694c4e95:w&#45;&gt;operatorbundle_a549c285:e</title>
<path fill="none" stroke="#000000" d="M479.0986,-129.0667C470.7182,-123.5264 465.3729,-114.8126 451,-111 326.8271,-78.0617 288.4614,-95.0436 164.7426,-95.962"/>
<polygon fill="#000000" stroke="#000000" points="486.8792,-131.2724 495.2726,-138.3294 491.6896,-132.6362 496.5,-134 496.5,-134 496.5,-134 491.6896,-132.6362 497.7274,-129.6706 486.8792,-131.2724 486.8792,-131.2724"/>
<ellipse fill="none" stroke="#000000" cx="483.0308" cy="-130.1814" rx="4" ry="4"/>
<polygon fill="#000000" stroke="#000000" points="155.5186,-100.9962 155.4814,-90.9963 157.4814,-90.9889 157.5186,-100.9888 155.5186,-100.9962"/>
<polyline fill="none" stroke="#000000" points="154.5,-96 159.5,-95.9814 "/>
<polygon fill="#000000" stroke="#000000" points="160.5185,-100.9777 160.4814,-90.9777 162.4814,-90.9703 162.5185,-100.9702 160.5185,-100.9777"/>
<polyline fill="none" stroke="#000000" points="159.5,-95.9814 164.4999,-95.9628 "/>
</g>
<!-- package_cfe5a8a5 -->
<g id="node5" class="node">
<title>package_cfe5a8a5</title>
<polygon fill="#f2e9ce" stroke="transparent" points="9.5,-194 9.5,-212 118.5,-212 118.5,-194 9.5,-194"/>
<text text-anchor="start" x="11.5" y="-199.8" font-family="Helvetica,sans-Serif" font-weight="bold" font-style="italic" font-size="14.00" fill="#000000">package</text>
<polygon fill="#f2e9ce" stroke="transparent" points="118.5,-194 118.5,-212 160.5,-212 160.5,-194 118.5,-194"/>
<text text-anchor="start" x="120.4312" y="-198.8" font-family="Helvetica,sans-Serif" font-size="14.00" fill="#000000">[table]</text>
<text text-anchor="start" x="11.5" y="-181.8" font-family="Helvetica,sans-Serif" font-weight="bold" font-style="italic" font-size="14.00" fill="#000000">name</text>
<text text-anchor="start" x="113.0552" y="-180.8" font-family="Helvetica,sans-Serif" font-size="14.00" fill="#000000"> </text>
<text text-anchor="start" x="120.5" y="-180.8" font-family="Helvetica,sans-Serif" font-size="14.00" fill="#000000">TEXT</text>
<text text-anchor="start" x="11.0693" y="-162.8" font-family="Helvetica,sans-Serif" font-size="14.00" fill="#000000">default_channel</text>
<text text-anchor="start" x="113.0552" y="-162.8" font-family="Helvetica,sans-Serif" font-size="14.00" fill="#000000"> </text>
<text text-anchor="start" x="120.5" y="-162.8" font-family="Helvetica,sans-Serif" font-size="14.00" fill="#000000">TEXT</text>
<polygon fill="none" stroke="#888888" points="8,-157 8,-213 161,-213 161,-157 8,-157"/>
</g>
<!-- channel_2c0bf162&#45;&gt;package_cfe5a8a5 -->
<g id="edge5" class="edge">
<title>channel_2c0bf162:w&#45;&gt;package_cfe5a8a5:e</title>
<path fill="none" stroke="#000000" d="M196.6423,-158.0527C187.2601,-165.7933 182.6644,-178.7448 170.3834,-183.3296"/>
<polygon fill="#000000" stroke="#000000" points="204.5576,-155.2926 215.4817,-156.2491 209.2788,-153.6463 214,-152 214,-152 214,-152 209.2788,-153.6463 212.5183,-147.7509 204.5576,-155.2926 204.5576,-155.2926"/>
<ellipse fill="none" stroke="#000000" cx="200.7807" cy="-156.6097" rx="4" ry="4"/>
<polygon fill="#000000" stroke="#000000" points="162.3193,-189.7634 160.6527,-179.9033 162.6247,-179.5699 164.2914,-189.4301 162.3193,-189.7634"/>
<polyline fill="none" stroke="#000000" points="160.5,-185 165.4301,-184.1667 "/>
<polygon fill="#000000" stroke="#000000" points="167.2494,-188.9301 165.5828,-179.07 167.5548,-178.7366 169.2214,-188.5968 167.2494,-188.9301"/>
<polyline fill="none" stroke="#000000" points="165.4301,-184.1667 170.3602,-183.3334 "/>
</g>
<!-- channel_2c0bf162&#45;&gt;operatorbundle_a549c285 -->
<g id="edge6" class="edge">
<title>channel_2c0bf162:w&#45;&gt;operatorbundle_a549c285:e</title>
<path fill="none" stroke="#000000" d="M196.7532,-128.7163C184.5126,-119.9064 179.9499,-102.672 164.3926,-97.5013"/>
<polygon fill="#000000" stroke="#000000" points="204.4386,-131.0707 212.6818,-138.3026 209.2193,-132.5354 214,-134 214,-134 214,-134 209.2193,-132.5354 215.3182,-129.6974 204.4386,-131.0707 204.4386,-131.0707"/>
<ellipse fill="none" stroke="#000000" cx="200.6141" cy="-129.899" rx="4" ry="4"/>
<polygon fill="#000000" stroke="#000000" points="154.7384,-101.0935 156.239,-91.2067 158.2163,-91.5068 156.7158,-101.3936 154.7384,-101.0935"/>
<polyline fill="none" stroke="#000000" points="154.5,-96 159.4434,-96.7503 "/>
<polygon fill="#000000" stroke="#000000" points="159.6818,-101.8437 161.1823,-91.9569 163.1597,-92.257 161.6592,-102.1438 159.6818,-101.8437"/>
<polyline fill="none" stroke="#000000" points="159.4434,-96.7503 164.3868,-97.5005 "/>
</g>
<!-- package_cfe5a8a5&#45;&gt;channel_2c0bf162 -->
<g id="edge7" class="edge">
<title>package_cfe5a8a5:w&#45;&gt;channel_2c0bf162:e</title>
<path fill="none" stroke="#000000" d="M27.4866,-165.4212C69.1999,-161.7599 169,-153 169,-153 193.1107,-165.2044 180.8893,-189.7956 205,-202 205,-202 386.4531,-177.5 431.8164,-171.375"/>
<polygon fill="#000000" stroke="#000000" points="19.4617,-166.1256 9.1065,-162.5172 14.4808,-166.5628 9.5,-167 9.5,-167 9.5,-167 14.4808,-166.5628 9.8935,-171.4828 19.4617,-166.1256 19.4617,-166.1256"/>
<ellipse fill="none" stroke="#000000" cx="23.4464" cy="-165.7758" rx="4" ry="4"/>
<polygon fill="#000000" stroke="#000000" points="440.3399,-165.1788 441.6781,-175.0889 439.6961,-175.3565 438.3579,-165.4464 440.3399,-165.1788"/>
<polyline fill="none" stroke="#000000" points="442,-170 437.045,-170.6691 "/>
<polygon fill="#000000" stroke="#000000" points="435.3849,-165.8479 436.723,-175.7579 434.741,-176.0256 433.4029,-166.1155 435.3849,-165.8479"/>
<polyline fill="none" stroke="#000000" points="437.045,-170.6691 432.0899,-171.3382 "/>
</g>
</g>
</svg>
